<?xml version="1.0" encoding="UTF-8" standalone="no"?>
<svg
   xmlns:dc="http://purl.org/dc/elements/1.1/"
   xmlns:cc="http://creativecommons.org/ns#"
   xmlns:rdf="http://www.w3.org/1999/02/22-rdf-syntax-ns#"
   xmlns:svg="http://www.w3.org/2000/svg"
   xmlns="http://www.w3.org/2000/svg"
   viewBox="0 0 4300.5601 3407.7334"
   height="3407.7334"
   width="4300.5601"
   xml:space="preserve"
   id="svg2"
   version="1.1"><metadata
     id="metadata8"><rdf:RDF><cc:Work
         rdf:about=""><dc:format>image/svg+xml</dc:format><dc:type
           rdf:resource="http://purl.org/dc/dcmitype/StillImage" /></cc:Work></rdf:RDF></metadata><defs
     id="defs6" /><g
     transform="matrix(1.3333333,0,0,-1.3333333,0,3407.7333)"
     id="g10"><g
       transform="scale(0.1)"
       id="g12"><g
         transform="scale(1.46863)"
         id="g14"><path
           id="path16"
           style="fill:#3acb77;fill-opacity:1;fill-rule:nonzero;stroke:none"
           d="m 4575.16,6530.16 c 412.83,623.51 775.24,1714.66 1087.05,3273.53 -2056.04,-901.66 -3083.9,-2005.41 -3083.9,-3311.39 0,-286.52 67.29,-507.82 202.2,-663.54 134.74,-156.06 320.08,-233.82 556.17,-233.82 412.66,0 825.66,311.58 1238.48,935.22 z M 8290.24,14530.7 C 8144.11,13332.1 8045.93,12689.5 8037.62,12622.1 7287.53,7035.74 5548.46,4242.52 3172.34,4242.52 c -699.51,0 -1245.01,198.08 -1636.85,594.02 -391.66,396.15 -587.655,893.08 -587.655,1491.46 0,1069.98 454.985,2015.96 1364.955,2837.47 910.15,821.51 2106.47,1501.73 3589.47,2041.03 92.76,598.2 164.35,1133.2 214.94,1605.2 l 227.49,1908.4 c -505.58,50.6 -977.6,75.9 -1415.56,75.9 -1171.36,0 -2034.87,-113.7 -2591.04,-341.2 -556,-227.5 -834.09,-598.4 -834.09,-1112.2 0,-252.8 84.15,-526.8 252.79,-821.5 50.59,-84.4 75.72,-172.8 75.72,-265.6 0,-176.9 -90.51,-334.8 -271.72,-473.9 -181.21,-139 -377.21,-208.5 -587.658,-208.5 -269.831,0 -476.156,113.7 -619.329,341.2 C 117.877,12301.8 0,12752.7 0,13266.7 0,15289 1769.36,16300 5308.23,16300 c 771.02,0 1480.38,-56.8 2128.15,-170.5 0,0 1031.64,-140.8 853.86,-1598.8" /></g><g
         transform="scale(1.53324)"
         id="g18"><path
           id="path20"
           style="fill:#3acb77;fill-opacity:1;fill-rule:nonzero;stroke:none"
           d="m 11971.5,7194.57 c 226.3,250.52 378.2,611.84 455.3,1083.92 -298.7,202.38 -527.5,467.31 -686.5,794.78 -158.9,327.54 -238.4,674.33 -238.4,1040.63 0,154.1 14.4,308.2 43.4,462.5 h -72.4 c -385.3,0 -705.8,-185.6 -961,-556.5 -255.4,-370.85 -383,-893.67 -383,-1567.99 0,-529.99 103.5,-934.62 310.7,-1214.03 207.2,-279.54 450.3,-418.98 729.9,-418.98 308.2,0 575.6,125.09 802,375.67 z m 4227.3,2413.59 c 67.4,-125.43 101.2,-284.31 101.2,-477.04 0,-462.48 -139.8,-736.93 -419.2,-823.81 -578,-202.25 -1213.9,-317.76 -1907.6,-346.78 -183,-809.33 -544.4,-1457.44 -1083.9,-1943.86 -539.6,-486.61 -1151.5,-729.69 -1835.4,-729.69 -578,0 -1072.03,139.44 -1481.29,418.98 -409.79,279.41 -720.5,650.45 -932.34,1112.94 -211.97,462.35 -317.95,963.25 -317.95,1502.96 0,732.17 139.63,1384.91 419.17,1958.34 279.41,573.1 664.8,1021.1 1156.12,1344 491.39,322.8 1035.69,484.1 1633.09,484.1 732.3,0 1322.5,-252.8 1770.5,-758.7 448.1,-505.8 710.4,-1129.7 787.6,-1871.63 452.8,29.03 992.3,125.1 1618.7,289.13 76.9,19.24 144.5,28.83 202.3,28.83 125.1,0 221.6,-62.62 289,-187.77" /></g><g
         transform="scale(1.94106)"
         id="g22"><path
           id="path24"
           style="fill:#3acb77;fill-opacity:1;fill-rule:nonzero;stroke:none"
           d="m 13394.6,7943.33 c -194,-327.29 -291,-723.11 -291,-1187.28 v -22.78 c 448.9,106.49 802.8,266.25 1061.6,479.38 258.6,213.03 388.2,460.42 388.2,742.02 0,144.54 -40,260.68 -120,348.3 -79.9,87.36 -188.4,131.24 -325.3,131.24 -281.6,0 -519.4,-163.79 -713.5,-490.88 z m 2819.7,-1643.89 c 57.1,-91.39 85.7,-216.89 85.7,-376.8 0,-273.93 -64.9,-509.83 -194.1,-707.76 -213.2,-327.3 -492.8,-582.11 -839,-764.79 -346.5,-182.68 -759.3,-273.92 -1238.6,-273.92 -730.7,0 -1297.7,218.59 -1701.1,656.34 -403.5,437.6 -605.1,1029.23 -605.1,1775.11 0,525.13 110.3,1014.14 331.2,1466.98 220.7,452.7 526.9,812.32 918.9,1078.83 391.9,266.26 835.2,399.46 1330,399.46 441.2,0 795.1,-131.24 1061.7,-393.86 266.2,-262.48 399.5,-618.32 399.5,-1067.37 0,-525.08 -188.4,-975.97 -565,-1352.67 -376.8,-376.8 -1018.1,-675.61 -1923.6,-896.16 182.7,-350.22 490.9,-525.22 924.6,-525.22 312,0 568.9,72.28 770.6,216.94 201.5,144.51 435.6,388.09 702,730.68 91.4,114.17 194.2,171.2 308.3,171.2 98.9,0 177,-45.7 234,-136.99" /></g><g
         transform="scale(1.16105)"
         id="g26"><path
           id="path28"
           style="fill:#3acb77;fill-opacity:1;fill-rule:nonzero;stroke:none"
           d="m 8945.79,13089.4 c -225.23,0 -445.11,-109.6 -571.14,96.1 -192.2,313.9 -93.81,1059.2 219.2,1252.9 102.77,63.6 2567.85,1216.8 7062.55,871.6 368.1,-28.3 643.6,-349.7 615.3,-717.9 -28.3,-368.2 -345.4,-419.3 -718.1,-392.6 -4026.9,310.6 -6239.01,-999.5 -6260.8,-1013 -108.43,-65.8 -228.33,-97.1 -347.01,-97.1" /></g><g
         transform="scale(10)"
         id="g30"><text
           id="text34"
           style="font-variant:normal;font-weight:bold;font-size:440.20999146px;font-family:Lato;-inkscape-font-specification:Lato-Bold;writing-mode:lr-tb;fill:#3acb77;fill-opacity:1;fill-rule:nonzero;stroke:none"
           transform="matrix(1,0,0,-1,1623.29,2176.56)"><tspan
             id="tspan32"
             y="0"
             x="0 280.4129 585.25568 956.34961 1321.7205">LEGAL</tspan></text>
</g><g
         transform="scale(1.95869)"
         id="g36"><path
           id="path38"
           style="fill:#3acb77;fill-opacity:1;fill-rule:nonzero;stroke:none"
           d="m 16085.2,2546.5 c -214.9,337.98 -710.2,119.01 -976.5,1.28 -17.6,-7.76 -1774.5,-775.42 -3683.6,-799.42 -1996.74,-25.11 -3869.58,785.28 -3888.01,793.45 -266.4,117.01 -762.19,335.07 -976.52,-3.58 -214.07,-338.7 195.44,-693.27 415.38,-883.7 C 7055.39,1585.71 8950.54,-30.2758 11392.6,0.460688 13766.7,30.3256 15594.7,1595.51 15671.4,1662.08 c 219.7,190.95 628.6,546.29 413.8,884.42" /></g></g></g></svg>