<svg xmlns="http://www.w3.org/2000/svg" viewBox="0 0 175.8 141.99"><defs><style>.cls-1,.cls-3,.cls-4,.cls-5,.cls-7{fill:#232323;}.cls-2,.cls-3,.cls-4,.cls-5,.cls-7{isolation:isolate;}.cls-3,.cls-4,.cls-5,.cls-7{font-size:24.46px;font-family:Lato-Bold, Lato;font-weight:700;}.cls-3{letter-spacing:0.09em;}.cls-4{letter-spacing:0.12em;}.cls-5{letter-spacing:0.11em;}.cls-6{letter-spacing:0.09em;}.cls-7{letter-spacing:-0.03em;}</style></defs><title>Asset 1ddd</title><g id="Layer_2" data-name="Layer 2"><g id="Layer_1-2" data-name="Layer 1"><path class="cls-1" d="M67.65,23.43c-1.19,9.78-2,15-2.06,15.57-6.12,45.58-20.31,68.37-39.7,68.37q-8.56,0-13.36-4.85A16.6,16.6,0,0,1,7.74,90.35q0-13.1,11.14-23.15T48.17,50.55q1.14-7.32,1.75-13.1l1.86-15.57q-6.19-.62-11.55-.62-14.34,0-21.14,2.78t-6.81,9.08a13.65,13.65,0,0,0,2.06,6.7A4.15,4.15,0,0,1,15,42a4.85,4.85,0,0,1-2.22,3.87,7.73,7.73,0,0,1-4.8,1.7,5.62,5.62,0,0,1-5.05-2.79A20.79,20.79,0,0,1,0,33.78Q0,9,43.32,9a100.65,100.65,0,0,1,17.37,1.39s8.42,1.15,7,13M37.34,88.72Q42.39,81.09,46.21,62,21,73,21,89a8,8,0,0,0,1.65,5.42,5.68,5.68,0,0,0,4.54,1.91q5.05,0,10.11-7.63"/><path class="cls-1" d="M138,60.15a8.53,8.53,0,0,1,.86,4.06q0,5.91-3.57,7a56.09,56.09,0,0,1-16.25,3,30.76,30.76,0,0,1-9.23,16.56A22.71,22.71,0,0,1,94.17,97a21.84,21.84,0,0,1-12.62-3.57A22.66,22.66,0,0,1,73.61,84a30.34,30.34,0,0,1-2.71-12.8,37.61,37.61,0,0,1,3.57-16.68A28.06,28.06,0,0,1,84.32,43a24.81,24.81,0,0,1,13.91-4.12q9.36,0,15.08,6.46A27.69,27.69,0,0,1,120,61.26a74.56,74.56,0,0,0,13.79-2.46,7.24,7.24,0,0,1,1.73-.25,2.69,2.69,0,0,1,2.46,1.6M102,80.71q2.89-3.2,3.88-9.23A17,17,0,0,1,100,64.71a20.05,20.05,0,0,1-2-8.86,21.29,21.29,0,0,1,.37-3.94h-.62q-4.92,0-8.19,4.74T86.29,70q0,6.77,2.65,10.34t6.22,3.57a8.92,8.92,0,0,0,6.83-3.2"/><path class="cls-1" d="M174.87,74.06a7.64,7.64,0,0,1,.92,4.06,13.65,13.65,0,0,1-2.09,7.63,24,24,0,0,1-9,8.25,28.26,28.26,0,0,1-13.36,3Q139.52,97,133,89.92t-6.52-19.14A35.62,35.62,0,0,1,130,54.92a29.24,29.24,0,0,1,9.91-11.64A24.93,24.93,0,0,1,154.25,39q7.14,0,11.45,4.25T170,54.74a19.9,19.9,0,0,1-6.09,14.59q-6.09,6.1-20.74,9.66,3,5.67,10,5.66a13.92,13.92,0,0,0,8.31-2.34,40.26,40.26,0,0,0,7.57-7.88,4.23,4.23,0,0,1,3.32-1.85,2.84,2.84,0,0,1,2.52,1.48M144.5,56.33a24.69,24.69,0,0,0-3.14,12.81v.24a28,28,0,0,0,11.45-5.17q4.18-3.45,4.18-8a5.36,5.36,0,0,0-1.29-3.76A4.52,4.52,0,0,0,152.19,51q-4.56,0-7.69,5.29"/><path class="cls-1" d="M57.71,57.56c-1.45,0-2.87.71-3.69-.62-1.24-2-.6-6.83,1.41-8.08C56.09,48.45,72,41,101,43.24a4.31,4.31,0,0,1,4,4.6v0c-.18,2.38-2.23,2.7-4.63,2.53-26-2-40.25,6.45-40.39,6.53a4.3,4.3,0,0,1-2.24.63"/><g class="cls-2"><text class="cls-3" transform="translate(90.19 21.07)">L</text><text class="cls-4" transform="translate(105.83 21.07)">E</text><text class="cls-5" transform="translate(122.8 21.07)">G<tspan class="cls-6" x="20.44" y="0">A</tspan></text><text class="cls-7" transform="translate(163.42 21.07)">L</text></g><path class="cls-1" d="M175,114.29c-2.34-3.68-7.73-1.29-10.63,0-.19.08-19.31,8.44-40.09,8.7-21.73.27-42.11-8.55-42.31-8.63-2.9-1.27-8.29-3.65-10.63,0s2.13,7.54,4.52,9.62c.86.75,21.49,18.34,48.06,18,25.84-.32,45.73-17.36,46.56-18.08,2.39-2.08,6.84-5.94,4.5-9.62"/></g></g></svg>
